<?xml version="1.0" standalone="no"?>
<!DOCTYPE svg PUBLIC "-//W3C//DTD SVG 20010904//EN"
 "http://www.w3.org/TR/2001/REC-SVG-20010904/DTD/svg10.dtd">
<svg version="1.0" xmlns="http://www.w3.org/2000/svg"
 width="460.000000pt" height="460.000000pt" viewBox="0 0 460.000000 460.000000"
 preserveAspectRatio="xMidYMid meet">
<metadata>
Created by potrace 1.14, written by Peter Selinger 2001-2017
</metadata>
<g transform="translate(0.000000,460.000000) scale(0.100000,-0.100000)"
fill="#000000" stroke="none">
<path d="M4134 4465 c-17 -19 -29 -37 -26 -40 3 -3 1 -5 -4 -6 -31 -2 -50 -10
-59 -22 -9 -13 -13 -13 -30 -1 -10 8 -27 14 -36 14 -24 0 -69 21 -69 32 0 4 7
8 15 8 25 0 17 27 -10 32 -13 3 -22 2 -20 -2 2 -4 -7 -22 -20 -40 -31 -41 -34
-69 -5 -40 l20 20 29 -21 c21 -16 28 -28 25 -45 -2 -12 0 -26 6 -29 17 -10 11
-25 -10 -25 -11 0 -29 -5 -39 -12 -16 -10 -17 -14 -6 -25 8 -7 26 -13 42 -13
16 0 35 -6 42 -12 10 -9 15 -10 18 -2 6 18 52 4 59 -18 6 -21 -11 -48 -32 -48
-8 0 -14 -8 -14 -18 0 -10 -9 -28 -20 -40 -11 -12 -20 -25 -20 -31 0 -18 27
-19 41 0 18 26 28 24 22 -3 -4 -19 1 -17 32 15 20 20 38 37 41 37 12 0 1 -32
-17 -49 -14 -13 -20 -27 -16 -40 5 -19 -24 -71 -70 -129 -17 -21 -21 -22 -32
-8 -10 12 -9 17 8 26 17 8 19 15 11 29 -13 26 -47 33 -53 12 -2 -9 -15 -17
-28 -18 -13 -1 -25 -7 -27 -13 -7 -19 -31 -11 -27 9 5 28 41 61 66 61 15 0 20
5 17 22 -2 13 -11 24 -22 26 -19 4 -66 48 -66 63 0 5 -7 6 -15 3 -19 -8 -19 3
0 22 9 10 23 13 36 9 19 -6 21 -4 16 15 -3 12 -2 33 3 46 8 20 6 24 -8 24 -24
0 -42 -19 -42 -45 0 -12 -3 -24 -6 -28 -11 -11 -69 21 -70 40 -2 52 -3 53 -40
53 -19 0 -42 -7 -50 -15 -8 -8 -21 -12 -29 -9 -21 8 0 44 25 44 24 0 79 57 80
82 0 9 7 24 16 32 18 18 11 21 -17 6 -10 -6 -28 -28 -39 -49 -15 -30 -27 -40
-54 -45 -19 -4 -39 -13 -45 -20 -7 -8 -34 -13 -71 -14 -49 -1 -60 2 -65 18 -4
13 -15 18 -40 17 -40 -1 -48 -17 -9 -17 17 0 28 -6 31 -20 3 -10 17 -23 32
-29 l26 -9 -26 -1 c-14 -1 -35 8 -47 19 -31 29 -42 25 -42 -17 0 -56 -10 -65
-44 -48 -22 12 -32 12 -42 4 -8 -6 -27 -9 -44 -5 -22 4 -30 2 -30 -8 0 -18 96
-99 136 -115 17 -6 45 -28 63 -46 20 -21 42 -35 57 -35 14 0 40 -16 65 -40 23
-22 45 -40 48 -40 4 0 22 -36 40 -80 19 -44 39 -80 46 -80 6 0 41 26 77 58 54
46 64 60 57 75 -11 20 10 24 42 6 17 -8 23 -7 34 7 11 16 15 16 29 5 23 -19
20 -37 -14 -86 -18 -26 -30 -55 -29 -72 3 -50 -1 -62 -21 -68 -24 -8 -70 -55
-70 -72 0 -6 -6 -18 -13 -25 -42 -41 -56 -121 -32 -168 8 -15 17 -55 21 -90 5
-43 17 -81 36 -113 15 -27 35 -63 44 -80 8 -18 26 -52 39 -77 30 -56 32 -73 5
-65 -17 5 -20 2 -20 -24 0 -41 31 -99 56 -105 22 -6 39 -53 22 -58 -20 -7 -16
-55 11 -117 36 -85 81 -224 81 -251 0 -11 -7 -23 -15 -26 -8 -4 -15 -18 -15
-32 0 -24 1 -24 19 -8 21 19 45 23 79 12 13 -5 22 -3 22 3 0 20 2 26 11 38 7
8 5 10 -10 6 -15 -4 -22 1 -27 21 -3 15 -4 36 0 49 6 24 -13 87 -26 87 -4 0
-8 14 -8 31 0 17 -5 39 -10 49 -7 13 -7 21 0 25 5 3 10 15 10 26 0 16 -3 18
-19 9 -15 -7 -24 -5 -41 8 -19 16 -21 22 -11 40 6 12 18 22 26 22 19 0 19 33
0 96 -8 27 -15 63 -15 81 0 26 -6 34 -37 50 -48 23 -57 59 -19 69 15 3 30 13
35 22 10 18 3 92 -10 107 -5 5 -9 18 -9 30 0 12 -5 26 -10 31 -11 11 -34 123
-33 159 1 11 7 42 13 69 7 27 8 51 3 55 -4 3 -8 27 -7 54 0 35 7 54 25 75 45
51 92 91 100 86 5 -3 9 10 8 28 0 18 -3 27 -6 21 -2 -7 -11 -13 -18 -13 -7 0
-15 -7 -19 -15 -3 -8 -13 -15 -22 -15 -13 0 -8 10 19 36 19 20 40 33 46 30 5
-4 12 -2 15 3 4 5 2 12 -4 16 -18 11 -10 25 13 22 12 -2 16 -2 9 0 -16 6 44
63 66 63 7 0 20 6 28 14 7 8 19 17 26 20 9 3 8 8 -5 16 -18 12 -16 41 6 65 18
19 66 6 73 -21 7 -28 17 -30 35 -7 12 15 12 16 -2 11 -14 -5 -16 -2 -10 19 4
15 14 29 22 33 7 4 24 12 36 18 13 7 28 12 35 12 12 0 68 62 68 74 0 11 -36 6
-48 -6 -8 -8 -12 -8 -12 -1 0 6 -7 13 -15 17 -8 3 -14 0 -12 -6 2 -12 -49 -46
-56 -38 -16 16 -10 46 11 55 12 5 22 17 23 25 0 8 2 23 4 33 3 14 -1 16 -16
12 -13 -4 -19 -2 -19 9 0 16 -35 83 -52 101 -6 7 -16 2 -29 -14 -10 -13 -25
-21 -33 -18 -12 5 -38 79 -40 117 -2 27 -31 20 -62 -15z m171 -125 c-12 -13
-22 -17 -28 -11 -13 13 1 31 25 31 21 0 21 -1 3 -20z m-289 -5 c-21 -16 -32
-13 -21 4 3 6 14 11 23 11 15 -1 15 -2 -2 -15z m-16 -55 c0 -5 -7 -10 -16 -10
-8 0 -12 5 -9 10 3 6 10 10 16 10 5 0 9 -4 9 -10z m140 -29 c0 -5 -7 -14 -15
-21 -11 -9 -14 -22 -10 -41 5 -23 3 -28 -12 -26 -14 1 -18 10 -19 47 -2 45 -1
47 27 48 16 0 29 -3 29 -7z m-573 -31 c18 -27 -9 -55 -38 -40 -15 9 -21 7 -25
-5 -5 -12 -10 -13 -20 -5 -18 16 -6 42 16 35 13 -4 20 1 25 15 8 25 27 26 42
0z m61 -16 c1 -1 -6 -4 -18 -7 -15 -4 -20 0 -20 15 0 18 2 19 18 7 9 -7 18
-14 20 -15z m96 7 c3 -4 0 -16 -8 -26 -11 -15 -16 -16 -37 -4 l-24 14 23 3
c12 2 22 8 22 13 0 11 17 12 24 0z m580 -42 c-14 -27 -34 -39 -34 -20 0 5 -9
11 -21 14 -31 8 -20 41 16 48 44 8 58 -6 39 -42z m-594 -28 c0 -5 -7 -14 -15
-21 -8 -7 -15 -10 -15 -7 0 3 -3 12 -6 21 -4 12 0 16 15 16 12 0 21 -4 21 -9z
m-150 -36 c0 -8 -7 -15 -15 -15 -8 0 -15 7 -15 15 0 8 7 15 15 15 8 0 15 -7
15 -15z m195 -46 c17 0 24 -3 18 -6 -18 -7 -16 -40 3 -47 11 -4 13 -13 8 -28
-10 -34 -11 -34 -48 5 -19 21 -38 37 -42 37 -5 0 -3 -5 4 -12 7 -7 12 -23 12
-37 l0 -25 -17 24 c-10 14 -16 32 -15 41 2 9 -5 20 -15 23 -17 7 -17 8 2 22
11 8 29 13 40 10 11 -3 34 -6 50 -7z m75 -25 c0 -8 -9 -14 -20 -14 -22 0 -28
26 -7 33 16 6 27 -1 27 -19z"/>
<path d="M3964 4459 c-7 -12 15 -41 27 -33 14 8 11 31 -6 37 -8 4 -17 2 -21
-4z"/>
<path d="M3788 4306 c-22 -16 -23 -36 -4 -36 19 0 48 29 41 41 -8 12 -17 11
-37 -5z"/>
<path d="M3100 4204 c-13 -13 -29 -23 -35 -23 -32 4 -47 -5 -70 -40 -28 -45
-74 -91 -91 -91 -17 0 -23 -21 -13 -45 4 -11 8 -32 8 -46 1 -19 8 -28 23 -32
12 -4 19 -9 15 -13 -3 -4 -2 -15 4 -26 15 -29 4 -33 -22 -9 -13 12 -26 21 -30
21 -14 0 -23 -24 -11 -28 7 -2 12 -8 12 -13 0 -6 -4 -7 -10 -4 -5 3 -10 1 -10
-4 0 -20 -18 -11 -23 11 -8 28 -27 13 -51 -39 -9 -21 -35 -51 -56 -67 -39 -29
-39 -29 -18 -46 l21 -17 -26 -7 c-14 -3 -37 -2 -50 3 -26 10 -47 -2 -47 -26 0
-6 -6 -16 -13 -20 -7 -4 -26 -27 -43 -50 -20 -30 -39 -44 -64 -50 -32 -8 -35
-12 -35 -43 0 -34 2 -35 40 -38 22 -2 54 -9 72 -18 24 -11 63 -13 162 -11 72
2 134 7 138 10 3 4 1 7 -6 7 -7 0 -11 8 -10 18 4 30 -12 51 -42 57 -34 8 -48
28 -41 61 4 24 17 32 24 15 2 -5 19 -4 38 3 28 9 35 16 36 37 1 14 4 30 7 35
3 6 -4 11 -15 11 -19 2 -68 39 -68 52 0 4 9 12 20 19 17 10 21 8 35 -18 17
-33 54 -41 56 -12 1 9 2 29 3 43 2 29 67 94 77 77 5 -7 25 -2 58 12 51 23 51
24 35 48 -12 18 -13 27 -4 36 8 8 16 5 31 -14 18 -23 20 -24 30 -7 5 9 21 17
35 17 22 0 24 -3 18 -22 -4 -13 -12 -27 -18 -31 -7 -6 -6 -7 4 -4 20 5 85 -30
85 -46 0 -6 5 -12 10 -13 25 -2 45 -18 45 -35 0 -27 26 -34 54 -16 14 9 33 13
46 10 19 -5 22 -3 17 11 -4 10 -10 30 -13 44 -3 15 -15 47 -26 72 -23 52 -31
73 -48 116 -14 39 -85 98 -107 90 -8 -3 -13 -12 -10 -19 8 -21 -8 -38 -27 -31
-11 4 -16 14 -13 25 3 11 1 19 -4 19 -5 0 -9 9 -9 20 0 11 5 20 10 20 17 0 11
20 -12 44 -33 34 -50 36 -78 10z m63 -140 c9 -10 -4 -34 -19 -34 -8 0 -14 6
-14 13 0 22 19 35 33 21z m37 -49 c0 -16 -41 -47 -54 -42 -19 8 -11 34 12 40
26 7 42 8 42 2z m46 -44 c-10 -16 -46 -13 -46 3 0 16 30 27 44 15 4 -4 5 -12
2 -18z m89 -11 c-3 -6 1 -13 10 -16 21 -9 48 -62 40 -82 -5 -13 -10 -11 -30
13 -13 17 -24 35 -25 41 0 7 -10 15 -22 18 -23 6 -23 7 -4 21 23 17 40 20 31
5z m-275 -50 c0 -5 -7 -10 -15 -10 -8 0 -15 5 -15 10 0 6 7 10 15 10 8 0 15
-4 15 -10z m205 0 c3 -5 4 -14 0 -20 -8 -13 -35 -1 -35 16 0 16 26 19 35 4z
m65 -60 c0 -11 -7 -20 -15 -20 -8 0 -15 9 -15 20 0 11 7 20 15 20 8 0 15 -9
15 -20z m-609 -195 c-1 -15 -24 -12 -29 3 -3 9 2 13 12 10 10 -1 17 -7 17 -13z
m33 -188 c-8 -21 -30 -22 -38 -2 -6 16 25 38 37 26 4 -4 5 -15 1 -24z"/>
<path d="M3878 4113 c7 -3 16 -2 19 1 4 3 -2 6 -13 5 -11 0 -14 -3 -6 -6z"/>
<path d="M3552 3858 c2 -13 8 -23 13 -23 6 0 11 10 13 23 2 15 -2 22 -13 22
-11 0 -15 -7 -13 -22z"/>
<path d="M3570 3783 c0 -5 9 -21 20 -38 18 -27 20 -28 20 -8 0 32 -10 53 -26
53 -8 0 -14 -3 -14 -7z"/>
<path d="M3145 3761 c-3 -5 -1 -12 5 -16 12 -7 30 2 30 16 0 12 -27 12 -35 0z"/>
<path d="M3280 3725 c-14 -16 -10 -18 14 -9 9 3 16 10 16 15 0 14 -16 11 -30
-6z"/>
<path d="M3220 3720 c20 -13 33 -13 25 0 -3 6 -14 10 -23 10 -15 0 -15 -2 -2
-10z"/>
<path d="M3372 3705 c-36 -19 -35 -22 5 -21 26 1 38 6 38 15 0 19 -15 22 -43
6z"/>
<path d="M4550 3690 c-13 -8 -12 -10 3 -10 9 0 17 5 17 10 0 12 -1 12 -20 0z"/>
<path d="M3300 3679 c0 -5 5 -7 10 -4 6 3 10 8 10 11 0 2 -4 4 -10 4 -5 0 -10
-5 -10 -11z"/>
<path d="M4044 3675 c3 -10 1 -24 -5 -32 -7 -7 -9 -16 -5 -20 9 -9 36 29 33
46 -1 8 -8 16 -16 19 -10 3 -12 0 -7 -13z"/>
<path d="M3086 3611 c-4 -7 -5 -15 -2 -18 9 -9 19 4 14 18 -4 11 -6 11 -12 0z"/>
<path d="M2825 3565 c2 -32 9 -38 33 -31 17 6 18 10 8 31 -15 33 -42 33 -41 0z"/>
<path d="M3073 3560 c-26 -10 -31 -30 -8 -30 8 0 19 9 25 20 6 11 9 20 8 19
-2 0 -13 -4 -25 -9z"/>
<path d="M2415 3510 c3 -5 10 -10 16 -10 5 0 9 5 9 10 0 6 -7 10 -16 10 -8 0
-12 -4 -9 -10z"/>
<path d="M4575 3340 c-3 -5 -8 -35 -10 -66 -2 -32 -9 -62 -14 -67 -5 -5 -8
-23 -5 -41 10 -82 11 -106 3 -106 -5 0 -9 -11 -9 -25 0 -14 -4 -25 -10 -25
-16 0 -12 -20 9 -46 11 -13 22 -47 26 -75 4 -31 11 -49 19 -46 8 3 12 77 13
255 3 231 -1 275 -22 242z"/>
<path d="M4511 3311 c-9 -6 -12 -19 -8 -39 4 -19 0 -37 -10 -52 -13 -18 -13
-24 -3 -30 24 -15 37 0 44 47 11 83 8 93 -23 74z"/>
<path d="M3985 3278 c4 -13 12 -42 18 -65 7 -24 15 -43 19 -43 5 0 8 -6 8 -14
0 -7 6 -19 14 -25 11 -9 11 -3 1 36 -7 27 -20 62 -29 78 -9 17 -16 36 -16 43
0 6 -5 12 -11 12 -7 0 -9 -8 -4 -22z"/>
<path d="M304 3214 c6 -35 4 -44 -12 -55 -36 -26 -56 -127 -31 -154 5 -5 9
-25 9 -45 0 -20 5 -41 12 -48 9 -9 8 -15 -7 -25 -12 -10 -14 -16 -7 -21 7 -4
12 -17 12 -30 0 -12 7 -31 15 -42 8 -10 15 -38 15 -61 0 -32 4 -43 19 -48 26
-8 35 -60 15 -90 -12 -19 -13 -28 -3 -46 10 -19 9 -25 -9 -40 l-21 -17 24 -4
c14 -3 30 2 39 11 14 14 17 13 31 -4 16 -23 20 -101 5 -110 -6 -3 -10 -22 -10
-41 0 -27 4 -34 20 -34 15 0 20 7 20 25 0 14 -4 25 -10 25 -15 0 -12 30 4 36
19 7 10 104 -10 120 -18 14 -18 24 0 24 20 0 29 35 16 60 -6 12 -9 28 -6 36 3
8 1 14 -4 14 -6 0 -10 9 -10 21 0 11 -7 27 -15 35 -28 29 -12 67 29 67 32 0
34 11 20 100 -5 29 -11 37 -28 37 -26 1 -56 40 -55 72 0 13 -2 40 -4 61 -2 21
0 40 4 43 5 3 9 14 9 25 0 14 -7 19 -29 19 -20 0 -30 6 -34 20 -5 20 22 60 42
60 13 0 15 17 2 25 -5 3 -13 0 -16 -5 -5 -8 -14 -5 -27 7 -20 18 -20 18 -14
-23z m11 -225 c-8 -12 -35 -12 -35 0 0 11 22 20 33 14 4 -2 5 -9 2 -14z"/>
<path d="M4055 3099 c-4 -6 -3 -15 3 -21 6 -6 11 -4 15 6 7 18 -9 31 -18 15z"/>
<path d="M4060 3036 c0 -31 14 -40 30 -21 15 18 6 45 -15 45 -9 0 -15 -9 -15
-24z"/>
<path d="M1602 2445 c9 -11 21 -32 27 -45 8 -21 10 -22 10 -5 1 23 -6 34 -34
55 -19 14 -19 14 -3 -5z"/>
<path d="M4430 2361 c0 -6 5 -13 10 -16 6 -3 10 1 10 9 0 9 -4 16 -10 16 -5 0
-10 -4 -10 -9z"/>
<path d="M3385 2293 c-10 -16 -24 -32 -32 -36 -7 -4 -13 -17 -13 -27 0 -10 -4
-22 -10 -25 -14 -8 -13 -18 5 -41 14 -17 14 -17 9 -1 -6 15 -2 18 17 15 15 -2
25 -11 27 -23 8 -56 13 -69 22 -55 5 8 7 17 5 21 -3 3 0 43 5 88 13 111 0 139
-35 84z"/>
<path d="M450 2264 c0 -8 5 -12 10 -9 6 3 10 10 10 16 0 5 -4 9 -10 9 -5 0
-10 -7 -10 -16z"/>
<path d="M4063 2265 c-3 -9 -3 -18 -1 -21 3 -3 8 4 11 16 6 23 -1 27 -10 5z"/>
<path d="M4107 2274 c-4 -4 -7 -17 -7 -28 1 -19 1 -20 11 -3 11 19 8 43 -4 31z"/>
<path d="M3980 2201 c0 -17 12 -41 20 -41 10 0 1 38 -11 46 -5 3 -9 1 -9 -5z"/>
<path d="M1570 2190 c0 -5 5 -10 11 -10 5 0 7 5 4 10 -3 6 -8 10 -11 10 -2 0
-4 -4 -4 -10z"/>
<path d="M4221 2179 c-13 -10 -31 -19 -40 -19 -10 0 -26 -7 -37 -15 -25 -19
-68 -19 -84 0 -21 26 -31 16 -15 -15 8 -16 15 -41 15 -55 0 -15 5 -36 12 -48
7 -12 11 -50 9 -83 -2 -60 -2 -61 26 -67 44 -10 93 -44 93 -66 0 -11 -20 -36
-45 -57 -43 -36 -44 -40 -38 -78 7 -49 10 -53 25 -38 13 13 48 -11 82 -56 12
-16 38 -43 59 -62 l38 -33 20 22 c13 13 32 21 54 21 28 0 37 5 50 30 9 17 20
28 25 25 5 -3 15 3 22 13 10 14 25 19 58 18 50 -1 48 -8 37 107 -6 62 -20 77
-71 77 -52 0 -66 9 -55 35 4 11 8 14 8 8 1 -15 59 -17 81 -3 12 8 11 10 -7 10
-33 0 -28 17 7 25 40 9 46 23 22 45 -11 11 -23 33 -27 50 -8 38 -29 34 -32 -6
-3 -59 -2 -57 -17 -45 -8 7 -17 23 -20 36 -8 30 -32 33 -41 5 -6 -20 -27 -24
-56 -12 -29 13 -82 83 -83 110 -1 22 -8 29 -36 38 -34 11 -54 34 -29 34 10 0
10 3 1 12 -9 9 -7 14 5 23 9 6 14 17 12 23 -2 6 -13 3 -28 -9z m49 -139 c0 -5
-7 -10 -15 -10 -8 0 -15 5 -15 10 0 6 7 10 15 10 8 0 15 -4 15 -10z m80 -161
c0 -14 -7 -19 -25 -19 -18 0 -25 5 -25 19 0 11 6 21 13 24 20 7 37 -4 37 -24z"/>
<path d="M3970 2141 c0 -5 5 -13 10 -16 6 -3 10 -2 10 4 0 5 -4 13 -10 16 -5
3 -10 2 -10 -4z"/>
<path d="M2130 2120 c19 -11 40 -19 45 -19 6 0 -6 8 -25 19 -19 11 -39 19 -45
19 -5 0 6 -8 25 -19z"/>
<path d="M4332 2094 c1 -9 9 -19 16 -22 9 -3 13 2 10 14 -1 9 -9 19 -16 22 -9
3 -13 -2 -10 -14z"/>
<path d="M2194 2093 c12 -13 80 -32 90 -26 5 4 -11 12 -35 19 -49 15 -66 17
-55 7z"/>
<path d="M4400 2080 c0 -5 7 -10 16 -10 8 0 12 5 9 10 -3 6 -10 10 -16 10 -5
0 -9 -4 -9 -10z"/>
<path d="M3855 2070 c3 -5 8 -10 11 -10 2 0 4 5 4 10 0 6 -5 10 -11 10 -5 0
-7 -4 -4 -10z"/>
<path d="M2328 2063 c-9 -2 -15 -10 -12 -18 7 -16 44 -7 44 11 0 14 -3 15 -32
7z"/>
<path d="M1752 1993 c-27 -51 -44 -221 -21 -207 6 3 9 20 6 37 -4 32 1 59 26
140 15 46 7 65 -11 30z"/>
<path d="M1645 1990 c4 -6 11 -8 16 -5 14 9 11 15 -7 15 -8 0 -12 -5 -9 -10z"/>
<path d="M3137 1946 c-11 -27 -8 -36 8 -36 16 0 17 5 6 34 -7 18 -8 18 -14 2z"/>
<path d="M1650 1940 c0 -5 5 -10 10 -10 6 0 10 5 10 10 0 6 -4 10 -10 10 -5 0
-10 -4 -10 -10z"/>
<path d="M1107 1914 c-4 -4 -4 -10 -1 -15 6 -10 34 0 34 12 0 10 -24 12 -33 3z"/>
<path d="M4017 1913 c-13 -12 -7 -23 13 -23 13 0 18 5 14 15 -7 16 -17 19 -27
8z"/>
<path d="M256 1884 c-4 -9 -4 -19 -1 -22 2 -3 7 3 11 12 4 9 4 19 1 22 -2 3
-7 -3 -11 -12z"/>
<path d="M1068 1893 c7 -3 16 -2 19 1 4 3 -2 6 -13 5 -11 0 -14 -3 -6 -6z"/>
<path d="M1208 1823 c6 -2 18 -2 25 0 6 3 1 5 -13 5 -14 0 -19 -2 -12 -5z"/>
<path d="M1270 1795 c0 -9 -12 -20 -26 -25 -18 -7 -24 -15 -20 -26 3 -9 6 -17
6 -19 0 -7 67 13 87 26 l22 13 -21 23 c-25 26 -48 30 -48 8z"/>
<path d="M2350 1772 c-25 -3 -30 -6 -17 -11 24 -9 97 -1 97 10 0 9 -17 9 -80
1z"/>
<path d="M3240 1770 c0 -5 4 -10 10 -10 5 0 7 -13 4 -29 -5 -23 -2 -32 14 -40
12 -6 27 -11 34 -10 7 0 3 4 -9 9 -24 10 -31 44 -11 56 7 5 5 11 -7 21 -22 16
-35 17 -35 3z"/>
<path d="M2110 1760 c0 -6 28 -10 65 -10 37 0 65 4 65 10 0 6 -28 10 -65 10
-37 0 -65 -4 -65 -10z"/>
<path d="M1470 1751 c0 -5 -9 -7 -20 -4 -14 4 -20 0 -20 -11 0 -9 8 -16 17
-16 9 0 24 -6 32 -14 11 -9 23 -11 39 -5 30 11 28 37 -4 49 -32 12 -44 13 -44
1z"/>
<path d="M1690 1730 c-7 -17 -19 -34 -26 -38 -15 -8 -39 -115 -30 -135 2 -7 5
0 5 15 1 29 27 62 42 53 5 -4 9 -1 9 6 0 8 3 9 13 0 8 -6 17 -8 20 -4 13 12 6
-32 -8 -57 -8 -14 -14 -36 -14 -50 l0 -25 24 28 c13 15 27 43 31 62 l6 35 82
1 c44 1 72 4 61 6 -27 7 -72 43 -54 43 8 0 -1 9 -20 21 -23 14 -47 19 -75 17
-39 -2 -41 -1 -38 25 5 36 -13 34 -28 -3z"/>
<path d="M3385 1710 c-3 -5 -2 -10 4 -10 5 0 13 5 16 10 3 6 2 10 -4 10 -5 0
-13 -4 -16 -10z"/>
<path d="M3900 1698 c0 -16 17 -44 24 -38 13 14 9 45 -6 48 -10 2 -18 -2 -18
-10z"/>
<path d="M3990 1686 c-4 -13 -19 -32 -32 -42 -21 -18 -23 -26 -23 -124 0 -97
-2 -109 -28 -151 -15 -26 -50 -68 -77 -93 -27 -25 -48 -46 -46 -46 44 0 202
162 198 204 0 11 6 48 15 81 23 87 41 184 35 190 -13 12 -33 3 -42 -19z"/>
<path d="M2531 1670 c0 -20 -6 -41 -12 -47 -7 -7 -7 -13 0 -17 12 -8 25 52 18
81 -3 10 -5 2 -6 -17z"/>
<path d="M3212 1689 c2 -6 8 -10 13 -10 5 0 11 4 13 10 2 6 -4 11 -13 11 -9 0
-15 -5 -13 -11z"/>
<path d="M1191 1639 c-6 -17 -19 -31 -34 -34 -20 -5 -25 -12 -23 -38 1 -29 -1
-32 -26 -29 -33 4 -38 -15 -7 -20 12 -2 26 -11 30 -20 5 -10 13 -26 17 -35 5
-9 21 -20 36 -24 27 -8 28 -7 23 24 -3 18 -3 26 0 20 2 -7 13 -13 23 -13 10 0
22 -4 25 -10 3 -5 14 -10 25 -10 13 0 17 5 13 18 -3 14 -11 18 -29 14 -13 -2
-24 0 -24 6 0 13 53 20 80 10 16 -6 28 -4 40 7 19 17 40 20 40 5 0 -5 10 -9
23 -9 14 1 17 3 6 6 -12 3 -16 14 -15 36 3 41 -20 100 -44 115 -14 8 -27 9
-46 2 -14 -6 -29 -8 -34 -5 -5 3 -27 7 -49 9 -36 4 -41 1 -50 -25z"/>
<path d="M2588 1599 c-2 -22 0 -43 4 -45 4 -3 8 15 8 40 0 57 -7 60 -12 5z"/>
<path d="M3068 1610 c-10 -17 -28 -31 -47 -35 -17 -4 -31 -10 -31 -13 0 -4
-16 -7 -35 -8 -22 0 -31 3 -23 8 9 5 8 8 -5 8 -11 0 -21 -9 -24 -20 -3 -11 -9
-18 -13 -15 -15 9 -54 -31 -47 -48 9 -23 29 -21 56 4 12 11 28 18 36 15 7 -2
27 0 44 7 43 16 71 -11 71 -68 0 -22 7 -50 16 -61 15 -18 15 -18 10 6 -16 75
-16 111 -3 175 8 39 14 71 13 72 -1 1 -9 -11 -18 -27z"/>
<path d="M2120 1610 c-21 -7 -18 -8 18 -9 26 -1 41 3 37 9 -7 11 -19 11 -55 0z"/>
<path d="M2692 1600 c0 -14 2 -19 5 -12 2 6 2 18 0 25 -3 6 -5 1 -5 -13z"/>
<path d="M1993 1603 c9 -2 23 -2 30 0 6 3 -1 5 -18 5 -16 0 -22 -2 -12 -5z"/>
<path d="M4071 1581 c-6 -11 -11 -41 -11 -66 0 -34 -7 -55 -25 -79 -16 -21
-22 -39 -18 -54 4 -17 1 -22 -13 -22 -11 0 -32 -11 -49 -25 -29 -24 -29 -25
-8 -31 14 -4 24 -17 28 -36 7 -31 6 -31 67 -11 11 3 27 -5 43 -22 l25 -28 0
28 c0 27 1 28 20 10 13 -12 27 -15 46 -11 14 4 31 3 37 -3 7 -5 23 -11 37 -13
21 -3 25 2 32 37 7 36 9 70 5 128 -1 9 -14 23 -29 30 -15 6 -28 18 -28 24 0 7
-6 13 -14 13 -7 0 -22 12 -32 26 -10 15 -29 36 -42 48 -14 14 -21 31 -20 46 4
33 -35 41 -51 11z m87 -184 c2 -10 -3 -17 -12 -17 -18 0 -29 16 -21 31 9 14
29 6 33 -14z m-118 -77 c0 -5 -2 -10 -4 -10 -3 0 -8 5 -11 10 -3 6 -1 10 4 10
6 0 11 -4 11 -10z m15 -30 c3 -5 -1 -10 -9 -10 -9 0 -16 5 -16 10 0 6 4 10 9
10 6 0 13 -4 16 -10z"/>
<path d="M2499 1563 c-8 -16 -24 -36 -36 -46 -13 -10 -23 -24 -23 -31 0 -6 -9
-12 -20 -12 -20 0 -20 1 2 17 12 10 19 21 15 25 -10 10 -60 -14 -52 -25 3 -5
1 -12 -5 -16 -35 -21 31 -36 70 -15 21 11 54 64 64 103 8 34 3 34 -15 0z"/>
<path d="M2200 1565 c0 -37 41 -104 76 -124 38 -23 69 -27 79 -11 3 6 -1 10
-9 10 -14 0 -28 17 -38 45 -1 6 -12 9 -22 7 -20 -2 -56 24 -56 42 0 6 -7 20
-15 30 -14 19 -15 19 -15 1z"/>
<path d="M2682 1532 c-10 -28 -9 -29 14 -18 28 13 29 19 10 35 -11 9 -16 6
-24 -17z"/>
<path d="M1762 1475 c-11 -23 -10 -25 7 -16 14 8 23 5 41 -14 13 -14 30 -25
37 -25 8 0 -5 18 -28 40 -23 22 -43 40 -44 40 -1 0 -7 -11 -13 -25z"/>
<path d="M2526 1454 c-5 -14 -4 -15 9 -4 17 14 19 20 6 20 -5 0 -12 -7 -15
-16z"/>
<path d="M2060 1439 c-63 -5 -133 -12 -155 -17 -35 -7 -37 -9 -17 -16 12 -4
22 -14 22 -22 0 -8 21 -37 47 -65 49 -53 59 -55 133 -29 14 5 65 21 113 35 93
28 102 40 51 63 -17 8 -34 24 -40 35 -11 26 -10 26 -154 16z m-5 -119 c3 -6
-1 -7 -9 -4 -18 7 -21 14 -7 14 6 0 13 -4 16 -10z m82 4 c-3 -3 -12 -4 -19 -1
-8 3 -5 6 6 6 11 1 17 -2 13 -5z m-113 -13 c4 -5 -3 -7 -14 -4 -23 6 -26 13
-6 13 8 0 17 -4 20 -9z"/>
<path d="M4390 1402 c0 -12 24 -22 52 -22 11 0 18 5 16 13 -5 14 -68 23 -68 9z"/>
<path d="M1159 1345 c-20 -13 -46 -35 -57 -49 -11 -14 -32 -30 -48 -37 -27
-10 -28 -11 -11 -24 16 -12 14 -14 -22 -20 -38 -6 -58 -25 -28 -25 6 0 4 -5
-6 -11 -9 -5 -21 -7 -26 -4 -6 3 -18 -3 -28 -13 -10 -11 -35 -25 -57 -32 -27
-9 -34 -15 -25 -21 15 -9 0 -17 -55 -28 -29 -6 -31 -10 -32 -52 0 -26 -4 -54
-8 -64 -4 -11 0 -22 11 -31 25 -19 31 -17 35 7 3 25 33 47 45 35 4 -4 -3 -16
-17 -26 l-25 -20 66 0 c36 0 69 3 73 8 4 4 11 7 14 8 4 0 19 4 35 8 19 6 35 3
52 -8 13 -9 31 -16 39 -16 8 0 16 -6 19 -12 3 -9 11 -7 25 7 19 19 20 23 6 60
-19 54 -10 95 21 95 15 0 25 -7 28 -21 5 -17 11 -20 31 -15 19 5 26 2 31 -14
3 -11 3 -25 0 -31 -5 -7 4 -8 28 -4 27 5 37 3 45 -10 5 -10 14 -15 21 -11 17
11 13 43 -6 51 -17 6 -17 8 2 23 15 13 20 29 19 63 -1 57 -9 71 -37 64 -18 -5
-15 0 11 24 29 25 32 32 23 50 -8 14 -21 21 -41 21 -26 0 -30 4 -30 28 0 19
-9 33 -33 50 -40 27 -43 27 -88 -3z m-249 -295 c0 -5 -7 -10 -16 -10 -8 0 -12
5 -9 10 3 6 10 10 16 10 5 0 9 -4 9 -10z"/>
<path d="M3916 1274 c-4 -9 -4 -19 -1 -22 2 -3 7 3 11 12 4 9 4 19 1 22 -2 3
-7 -3 -11 -12z"/>
<path d="M3827 1091 c-4 -17 -3 -21 5 -13 5 5 8 16 6 23 -3 8 -7 3 -11 -10z"/>
<path d="M926 905 c-11 -9 -14 -15 -7 -15 7 0 19 7 27 15 20 19 5 19 -20 0z"/>
<path d="M4320 894 c0 -8 5 -12 10 -9 6 3 10 10 10 16 0 5 -4 9 -10 9 -5 0
-10 -7 -10 -16z"/>
<path d="M1091 846 c-10 -12 -8 -13 8 -9 12 3 21 9 21 14 0 14 -16 11 -29 -5z"/>
<path d="M4536 837 c-10 -39 -6 -55 16 -60 30 -8 32 -4 14 31 -8 16 -13 32
-10 35 3 3 1 8 -4 11 -5 3 -12 -4 -16 -17z"/>
<path d="M2597 827 c-3 -8 -1 -20 4 -28 6 -10 9 -7 9 14 0 29 -5 35 -13 14z"/>
<path d="M2603 560 c0 -25 2 -35 4 -22 2 12 2 32 0 45 -2 12 -4 2 -4 -23z"/>
<path d="M2225 418 c-6 -24 -3 -35 11 -45 21 -15 34 -17 34 -4 0 12 -29 81
-34 81 -3 0 -8 -14 -11 -32z"/>
<path d="M2114 395 c-11 -36 -5 -45 15 -21 7 8 8 22 4 34 -7 19 -9 18 -19 -13z"/>
<path d="M1830 381 c0 -4 28 -11 61 -15 96 -10 111 -5 34 9 -87 17 -95 17 -95
6z"/>
<path d="M3278 383 c7 -3 16 -2 19 1 4 3 -2 6 -13 5 -11 0 -14 -3 -6 -6z"/>
<path d="M2000 360 c0 -5 15 -10 33 -10 24 0 28 3 17 10 -20 13 -50 13 -50 0z"/>
<path d="M2290 366 c0 -10 28 -13 41 -5 10 6 7 9 -13 9 -16 0 -28 -2 -28 -4z"/>
<path d="M2406 360 c7 -7 19 -7 35 -1 23 9 22 10 -10 10 -24 1 -32 -2 -25 -9z"/>
</g>
</svg>
